<svg version="1.2" xmlns="http://www.w3.org/2000/svg" viewBox="0 0 1024 1024" width="1024" height="1024">
	<title>New Project</title>
	<defs>
		<linearGradient id="g1" x1="54" y1="512" x2="970" y2="512" gradientUnits="userSpaceOnUse">
			<stop offset="0" stop-color="#026fc5"/>
			<stop offset="1" stop-color="#7929d2"/>
		</linearGradient>
		<linearGradient id="g2" x1="292.6" y1="507" x2="728.1" y2="507" gradientUnits="userSpaceOnUse">
			<stop offset="0" stop-color="#026fc5"/>
			<stop offset="1" stop-color="#7929d2"/>
		</linearGradient>
	</defs>
	<style>
		tspan { white-space:pre } 
		.s0 { fill: url(#g1) } 
		.s1 { fill: #000000 } 
		.t2 { font-size: 582px;fill: #ffffff;font-weight: 400;font-family: "Inter-Regular", "Inter" } 
		.s3 { fill: url(#g2) } 
	</style>
	<path id="Shape 5" class="s0" d="m512 970c-253.3 0-458-204.7-458-458 0-253.3 204.7-458 458-458 253.3 0 458 204.7 458 458 0 253.3-204.7 458-458 458z"/>
	<path id="Shape 1" class="s1" d="m6.1 411.6c-13.2-23-5.4-52.3 17.6-65.6l588.7-339.9c22.9-13.2 52.3-5.4 65.5 17.6l339.9 588.7c13.3 22.9 5.4 52.3-17.6 65.5l-588.6 339.9c-23 13.3-52.3 5.4-65.6-17.6z"/>
	<text id="[" style="transform: matrix(.965,-0.557,.557,.965,291.162,866.376)" >
		<tspan x="0" y="0" class="t2">[
</tspan>
	</text>
	<path id="" fill-rule="evenodd" class="s3" d="m547.4 571.5q-25.7 14.9-54.8 6.5-29.2-8.3-44.6-35-15.4-26.7-8.1-56.1 7.4-29.4 33.1-44.3 25.8-14.8 54.9-6.5 29.2 8.4 44.6 35 15.4 26.7 8 56.1-7.3 29.4-33.1 44.3zm128.3-204.4q-3.5-1.5-6.9-0.2l-48.6 18.6q-10.6-10-24.2-18.9 0.8-8.8 2.9-25.3 2.1-16.5 2.7-23.9 0.4-3.9-1.4-6.9-2-3.6-4.9-4.6-16.1-7.8-64.8-19.6-4.3-0.9-7.5 1-3.6 2.1-4.5 5.6l-19 46.8q-13 0.5-27.2 3.4l-33.6-42.4q-2.1-3.2-5.9-3.8-3.8-0.7-7.2 1.3l-53.9 31.1q-7.1 4.1-4.7 12.1 4.1 14.4 20 50.9-9.3 10.4-16.6 22.3l-49.1-7.5q-4.6-0.7-7.8 1.1-5.3 3.1-12.6 31.3-7.2 28.1-8.3 40.8-0.3 4.6 1.2 7.1 1.7 3 5.9 4.6 28 11 46 19.8 0.7 15 3.9 28.6l-41.1 33.1q-2.4 2.1-2.7 6-0.4 3.9 1.4 6.9l32.2 55.9q1.9 3.2 5.4 4.8 3.5 1.5 6.9 0.2l48.4-18.9q10.5 10.3 24.4 19.1-0.8 8.9-2.9 25.4-2.1 16.5-2.7 23.9-0.4 3.9 1.4 6.9 1.8 3.2 5 4.8 17.3 8.1 64.5 19.1 4.3 1.2 7.7-0.7 3.6-2.1 4.8-5.8l18.7-46.7q13-0.5 27.2-3.3l33.6 42.4q2.1 3.1 5.9 3.8 3.8 0.6 7.2-1.3l53.9-31.2q7.1-4.1 4.7-12.1-4.1-14.4-20-50.9 9.3-10.3 16.6-22.3l49.3 7.8q4.7 0.3 7.6-1.4 5.3-3.1 12.5-31 7.2-28 8.4-41.1 0.7-3.8-1.2-7.1-1.9-3.2-6-4.9-30.3-12-46.1-19.7-0.5-12.1-3.7-28.4l40.8-33q2.7-2.1 3-6 0.4-3.9-1.4-7l-32.2-55.8q-1.9-3.3-5.4-4.8z"/>
	<text id="[" style="transform: matrix(-0.965,.557,-0.557,-0.965,732.594,151.983)" >
		<tspan x="0" y="0" class="t2">[
</tspan>
	</text>
</svg>